<svg width="64" height="64" viewBox="0 0 64 64" fill="none" xmlns="http://www.w3.org/2000/svg">
<g clip-path="url(#clip0_20_5)">
<path d="M56 0H8C3.58172 0 0 3.58172 0 8V56C0 60.4183 3.58172 64 8 64H56C60.4183 64 64 60.4183 64 56V8C64 3.58172 60.4183 0 56 0Z" fill="#2E3C57"/>
</g>
<path d="M27.9318 40.1818V39.9773C27.9545 37.8068 28.1818 36.0795 28.6136 34.7955C29.0455 33.5114 29.6591 32.4716 30.4545 31.6761C31.25 30.8807 32.2045 30.1477 33.3182 29.4773C33.9886 29.0682 34.5909 28.5852 35.125 28.0284C35.6591 27.4602 36.0795 26.8068 36.3864 26.0682C36.7045 25.3295 36.8636 24.5114 36.8636 23.6136C36.8636 22.5 36.6023 21.5341 36.0795 20.7159C35.5568 19.8977 34.858 19.267 33.983 18.8239C33.108 18.3807 32.1364 18.1591 31.0682 18.1591C30.1364 18.1591 29.2386 18.3523 28.375 18.7386C27.5114 19.125 26.7898 19.733 26.2102 20.5625C25.6307 21.392 25.2955 22.4773 25.2045 23.8182H20.9091C21 21.8864 21.5 20.233 22.4091 18.858C23.3295 17.483 24.5398 16.4318 26.0398 15.7045C27.5511 14.9773 29.2273 14.6136 31.0682 14.6136C33.0682 14.6136 34.8068 15.0114 36.2841 15.8068C37.7727 16.6023 38.9205 17.6932 39.7273 19.0795C40.5455 20.4659 40.9545 22.0455 40.9545 23.8182C40.9545 25.0682 40.7614 26.1989 40.375 27.2102C40 28.2216 39.4545 29.125 38.7386 29.9205C38.0341 30.7159 37.1818 31.4205 36.1818 32.0341C35.1818 32.6591 34.3807 33.3182 33.7784 34.0114C33.1761 34.6932 32.7386 35.5057 32.4659 36.4489C32.1932 37.392 32.0455 38.5682 32.0227 39.9773V40.1818H27.9318ZM30.1136 50.2727C29.2727 50.2727 28.5511 49.9716 27.9489 49.3693C27.3466 48.767 27.0455 48.0455 27.0455 47.2045C27.0455 46.3636 27.3466 45.642 27.9489 45.0398C28.5511 44.4375 29.2727 44.1364 30.1136 44.1364C30.9545 44.1364 31.6761 44.4375 32.2784 45.0398C32.8807 45.642 33.1818 46.3636 33.1818 47.2045C33.1818 47.7614 33.0398 48.2727 32.7557 48.7386C32.483 49.2045 32.1136 49.5795 31.6477 49.8636C31.1932 50.1364 30.6818 50.2727 30.1136 50.2727Z" fill="white" fill-opacity="0.65"/>
<defs>
<clipPath id="clip0_20_5">
<rect width="64" height="64" fill="white"/>
</clipPath>
</defs>
</svg>
